# xmcd
#
# Track frame offsets: 
#        150
#        17400
#        36434
#        55685
#        72644
#        78185
#        93991
#        125532
#        143871
#        161212
#        176728
#        193756
#        213191
#
# Disc length: 3143 seconds
#
# Revision: 0
# Processed by: cddbd v1.5.2PL0 Copyright (c) Steve Scherf et al.
# Submitted via: ExactAudioCopyFreeDBPlugin 1.0
#
DISCID=b60c450d
DTITLE=Matthew Ball - Rainmaker
DYEAR=2011
DGENRE=Blues
TTITLE0=Barrelhouse Blues
TTITLE1=Swanee River Boogie
TTITLE2=The Shiek Of Araby Boogie
TTITLE3=Twelfth Street Boogie
TTITLE4=Beat Funk Blues
TTITLE5=The Highstepper
TTITLE6=Boogie Woogie Kid
TTITLE7=Bumble Bee Boogie
TTITLE8=Last Call Blues
TTITLE9=Motor City Breakdown
TTITLE10=Over The Rainbow Blues
TTITLE11=The Boogaloo
TTITLE12=Tippa-Tippa-Tina
EXTD=
EXTT0=
EXTT1=
EXTT2=
EXTT3=
EXTT4=
EXTT5=
EXTT6=
EXTT7=
EXTT8=
EXTT9=
EXTT10=
EXTT11=
EXTT12=
PLAYORDER=
